<svg id="vector" xmlns="http://www.w3.org/2000/svg" width="24" height="24" viewBox="0 0 431 411"><path fill="#ffffff" d="M112.5,13.6c-16,3 -27,7.3 -39.8,15.7 -61.8,40.5 -62.3,138.2 -0.9,179.1 12.1,8 23.8,12.4 40.2,15.1 33.3,5.3 66.6,-4.7 88.9,-26.7 17.9,-17.7 27.6,-37.9 30.9,-64.2 2.7,-22.1 -0.5,-42.9 -9.7,-62.1 -14.2,-29.5 -40,-49.7 -72.1,-56.5 -9.1,-1.9 -28.5,-2.2 -37.5,-0.4zM137.9,59.1c19.6,3.3 35,18.3 40.8,39.9 2.5,9 2.5,30 0,39 -5.9,22.1 -20,35.8 -40.6,39.6 -8.1,1.5 -9.4,1.5 -17.6,-0.1 -21.4,-4 -34.7,-17.1 -40.5,-40.1 -2.5,-9.9 -2.7,-25.6 -0.4,-35.7 5,-22.1 20.3,-38.3 39.9,-42.3 7.8,-1.6 10.5,-1.6 18.4,-0.3z" stroke="#00000000" id="path_0"/><path fill="#ffffff" d="M239,118.5l0,102.5 24.5,-0 24.5,-0 0.2,-41.6 0.3,-41.6 8.2,9.3c4.5,5.2 9.2,10.6 10.5,12.1 1.3,1.5 13.8,16 27.8,32.2l25.5,29.5 32.3,-0c31.2,0.1 32.3,-0 32,-1.8 -0.3,-1.7 -14.1,-17.6 -75.1,-86.4 -9.2,-10.4 -16.7,-19.3 -16.5,-19.8 0.3,-1 19.1,-23.2 54.5,-64.8 13.9,-16.3 25.3,-30.2 25.3,-30.9 0,-0.9 -6.4,-1.2 -28.8,-1.2l-28.8,-0 -2.1,2.7c-1.1,1.6 -6.2,7.8 -11.4,13.9 -5.2,6 -19.3,22.8 -31.4,37.3l-22,26.3 -0.3,-40.1 -0.2,-40.1 -24.5,-0 -24.5,-0 0,102.5z" stroke="#00000000" id="path_1"/><path fill="#ffffff" d="M184,266l0,41 8.5,-0 8.5,-0 0,-13.5c0,-14.5 0.8,-17.9 5.2,-20.9 3.2,-2.3 6.5,-2 9.3,0.9 2.4,2.4 2.5,2.8 2.5,18l0,15.5 9.5,-0 9.5,-0 0,-17.3c-0.1,-22.5 -1.5,-26.7 -10.5,-30.8 -5.7,-2.6 -16.9,-2.6 -21.3,0.1 -1.8,1.1 -3.5,2 -3.7,2 -0.3,-0 -0.5,-8.1 -0.5,-18l0,-18 -8.5,-0 -8.5,-0 0,41z" stroke="#00000000" id="path_2"/><path fill="#ffffff" d="M239.7,228.7c-0.4,0.3 -0.7,18.2 -0.7,39.6l0,38.9 17.8,-0.4c17.1,-0.3 17.9,-0.4 23.7,-3.3 7.6,-3.7 14.9,-10.9 18.3,-18.3 2.4,-5.1 2.7,-6.8 2.7,-17.2 0,-11 -0.1,-11.8 -3.3,-18.2 -5.8,-11.8 -16.3,-19 -30.3,-20.8 -8.5,-1.1 -27.2,-1.3 -28.2,-0.3zM272.3,249.7c6.2,4.3 9.1,10.2 9.1,18.3 0,7.4 -1.6,11.2 -6.9,16.3 -3.6,3.5 -10.6,6.2 -14.1,5.5 -1.8,-0.3 -1.9,-1.7 -2.2,-22.2l-0.2,-21.9 5.1,0.5c3.4,0.4 6.4,1.5 9.2,3.5z" stroke="#00000000" id="path_3"/><path fill="#ffffff" d="M31,268l0,39 22.5,-0 22.5,-0 0,-8 0,-8 -13,-0 -13,-0 0,-7.5 0,-7.5 12.5,-0 12.5,-0 0,-8.5 0,-8.5 -12.5,-0 -12.6,-0 0.3,-6.8 0.3,-6.7 12.8,-0.3 12.7,-0.3 0,-7.9 0,-8 -22.5,-0 -22.5,-0 0,39z" stroke="#00000000" id="path_4"/><path fill="#ffffff" d="M92.5,258.4c-10.7,4.7 -16.3,17.5 -13.6,30.9 1.5,7 5.6,12.8 11.8,16.4 6.4,3.8 16.8,4 22.6,0.5 4.5,-2.6 4.7,-2.6 4.7,-0.7 0,1.2 1.7,1.5 9,1.5l9,-0 0,-24.5 0,-24.5 -9,-0c-7.3,-0 -9,0.3 -9,1.5 0,1.2 -0.6,1.2 -3.7,-0.5 -4.5,-2.4 -17,-2.7 -21.8,-0.6zM114.8,275.3c1.4,1.4 2.6,4.1 2.9,6.5 0.5,3.8 0.2,4.5 -3.1,7.8 -3.3,3.3 -4.1,3.6 -7.7,3.1 -4.8,-0.6 -6.8,-2.1 -8.6,-6.5 -4.2,-10 8.8,-18.6 16.5,-10.9z" stroke="#00000000" id="path_5"/><path fill="#ffffff" d="M152.5,259.4c-12.3,5.7 -18.1,20 -13.2,32.8 5.2,13.4 23.7,20.4 38.2,14.4 4.1,-1.8 4.3,-3.1 1.3,-9.7 -2.4,-5.1 -4.1,-5.9 -7.9,-3.8 -4.3,2.3 -10.8,-1.2 -13.3,-7.1 -1.3,-3.3 -1.3,-4 0.3,-7.6 2.3,-5.1 8.1,-8.1 12.5,-6.5 4.8,1.9 6.1,1.3 8.4,-3.4 1.2,-2.5 2.2,-5.4 2.2,-6.4 0,-5.2 -19.3,-7 -28.5,-2.7z" stroke="#00000000" id="path_6"/><path fill="#ffffff" d="M316.2,259.1c-17.4,8.6 -17.4,38.1 0,47 7.9,4 19.5,3.2 25,-1.8 1.7,-1.5 1.8,-1.5 1.8,0.5 0,2.1 0.5,2.2 8.5,2.2l8.5,-0 0,-24.5 0,-24.5 -8.5,-0c-6.9,-0 -8.5,0.3 -8.5,1.5 0,1.2 -0.6,1.2 -3.7,-0.5 -5.4,-2.9 -17.2,-2.8 -23.1,0.1zM337,273.5c6.6,3.4 7.6,12.1 1.9,16.9 -4,3.4 -8.8,3.4 -12.8,-0 -5.6,-4.7 -4.8,-13.3 1.7,-16.8 3.5,-1.9 5.6,-2 9.2,-0.1z" stroke="#00000000" id="path_7"/><path fill="#ffffff" d="M363,259.6c0,0.9 4.2,9.1 9.4,18.3 5.2,9.1 9.9,17.7 10.6,19.1 1,2.3 0.4,4.1 -6.4,17.1 -4.2,8.1 -7.6,15.3 -7.6,16.3 0,1.4 1.4,1.6 9.9,1.6l10,-0 6.7,-13.3c3.6,-7.2 7,-13.7 7.4,-14.2 2.6,-3.6 22,-42.6 22,-44.4 0,-2 -0.5,-2.1 -9.6,-2.1l-9.5,-0 -5.1,11c-2.8,6 -5.4,11 -5.7,11 -0.3,-0 -3.2,-5 -6.4,-11l-5.8,-11 -10,-0c-8.4,-0 -9.9,0.2 -9.9,1.6z" stroke="#00000000" id="path_8"/><path fill="#ffffff" d="M31,316.1c0,1.8 5.1,9.9 10.4,16.3 26,31.5 75.4,55.7 131.3,64.1 65.3,9.9 139.3,-4 185.2,-34.7 11.1,-7.5 25.1,-19.7 25.1,-22 0,-1.6 -1,-1.8 -10.2,-1.8l-10.3,0.1 -6,4c-10.8,7.1 -29.4,15.3 -46.5,20.3 -42,12.4 -100,15.6 -144,8 -47.5,-8.2 -86.8,-25.2 -107.9,-46.6 -3.9,-3.9 -7.1,-7.5 -7.1,-8 0,-0.4 -4.5,-0.8 -10,-0.8 -6.4,-0 -10,0.4 -10,1.1z" stroke="#00000000" id="path_9"/></svg>